# xmcd
#
# Track frame offsets:
#	182
#	12642
#	24130
#	37000
#	46600
#	56030
#	69242
#	80902
#	92637
#	108062
#	122320
#	139095
#	160715
#	182507
#	210122
#	230292
#	250167
#	271197
#	297532
#	313815
#	334220
#
# Disc length: 4687 seconds
#
# Revision: 1
# Processed by: cddbd v1.5.1PL2 Copyright (c) Steve Scherf et al.
# Submitted via: audiograbber 1.83.01
#
DISCID=15124d15
DTITLE=Gerry Rafferty - Clowns To The Left, Jokers To The Right, 1970-1982
DYEAR=1996
DGENRE=Rock
TTITLE0=The Humblebums  - Please Sing A Song For Us
TTITLE1=The Humblebums - Blood and Glory
TTITLE2=The Humblebums - Rick Rack
TTITLE3=The Humblebums - Steamboat Row
TTITLE4=Gerry Rafferty - Can I Have My Money Back?
TTITLE5=Gerry Rafferty - New Street Blues
TTITLE6=Gerry Rafferty - Mary Skeffington
TTITLE7=Gerry Rafferty - Sign On The Dotted Line
TTITLE8=Stealers Wheel - Stuck In The Middle With You
TTITLE9=Stealers Wheel - Everyone's Agreed That Everything Will Turn Out Fine
TTITLE10=Stealers Wheel - Who Cares?
TTITLE11=Stealers Wheel - Benediction
TTITLE12=Stealers Wheel - Right Or Wrong
TTITLE13=Gerry Rafferty - Baker Street
TTITLE14=Gerry Rafferty - Right Down The Line
TTITLE15=Gerry Rafferty - Night Owl
TTITLE16=Gerry Rafferty - Get It Right Next Time
TTITLE17=Gerry Rafferty - Take The Money And Run
TTITLE18=Gerry Rafferty - The Royal Mile (Sweet Darlin')
TTITLE19=Gerry Rafferty - Bring It All Home
TTITLE20=Gerry Rafferty - Sleepwalking
EXTD=
EXTT0=
EXTT1=
EXTT2=
EXTT3=
EXTT4=
EXTT5=
EXTT6=
EXTT7=
EXTT8=
EXTT9=
EXTT10=
EXTT11=
EXTT12=
EXTT13=
EXTT14=
EXTT15=
EXTT16=
EXTT17=
EXTT18=
EXTT19=
EXTT20=
PLAYORDER=
